<?xml version="1.0" standalone="no"?>
<!DOCTYPE svg PUBLIC "-//W3C//DTD SVG 20010904//EN"
 "http://www.w3.org/TR/2001/REC-SVG-20010904/DTD/svg10.dtd">
<svg version="1.0" xmlns="http://www.w3.org/2000/svg"
 width="225.000000pt" height="225.000000pt" viewBox="0 0 225.000000 225.000000"
 preserveAspectRatio="xMidYMid meet">
<metadata>
Created by potrace 1.14, written by Peter Selinger 2001-2017
</metadata>
<g transform="translate(0.000000,225.000000) scale(0.100000,-0.100000)"
fill="#000000" stroke="none">
<path d="M1489 1952 c-81 -33 -140 -82 -354 -293 -294 -290 -331 -318 -425
-319 -105 -1 -228 -47 -305 -113 -70 -60 -125 -186 -125 -287 0 -85 45 -215
92 -266 19 -21 19 -23 2 -55 -13 -25 -18 -56 -18 -114 0 -86 15 -133 60 -192
l25 -33 165 0 c90 0 164 3 165 8 0 4 2 35 4 70 l3 62 -134 0 c-126 0 -134 1
-145 21 -19 36 -5 114 30 170 l31 51 -33 39 c-19 21 -50 71 -70 110 -57 111
-48 207 28 297 46 54 112 81 225 92 160 15 210 49 504 342 245 244 324 301
393 283 39 -9 107 -84 128 -138 24 -64 17 -75 -39 -70 l-46 5 0 -71 0 -71 68
0 c84 0 112 -16 112 -65 0 -80 -134 -107 -254 -52 -32 15 -60 26 -61 25 0 -2
-20 -27 -44 -56 l-43 -52 76 -35 c65 -30 79 -42 97 -77 26 -50 22 -84 -20
-170 l-30 -63 31 -50 c45 -73 48 -125 9 -199 -27 -51 -30 -61 -17 -75 23 -27
46 -79 46 -104 0 -16 -13 -36 -35 -56 -35 -30 -38 -31 -140 -31 -77 0 -105 -3
-106 -12 -1 -7 -2 -39 -3 -70 l-1 -58 98 0 c54 0 117 5 140 11 60 15 117 57
150 111 25 40 29 58 30 115 0 49 -5 76 -17 95 -16 25 -16 28 -1 59 26 50 24
165 -5 224 l-23 47 22 46 c23 50 30 114 18 173 l-7 35 58 18 c33 9 76 31 97
48 87 72 99 202 27 280 -19 21 -28 44 -34 94 -15 130 -101 260 -205 310 -54
26 -138 28 -194 6z"/>
<path d="M1125 1211 c-2 -5 -9 -39 -15 -78 -13 -85 -2 -171 34 -248 28 -61 29
-59 -55 -103 -65 -34 -133 -58 -201 -71 l-48 -8 0 31 c0 64 -58 216 -83 216
-7 0 -61 -38 -100 -70 -4 -4 4 -30 18 -58 29 -58 35 -134 15 -173 -7 -13 -26
-40 -41 -60 l-28 -36 48 -47 48 -47 29 34 c16 19 36 43 45 54 12 15 33 21 81
26 92 9 217 52 311 109 57 34 84 45 92 38 7 -6 15 -39 17 -75 6 -66 35 -131
75 -168 19 -16 21 -15 66 32 40 42 45 52 33 63 -35 36 -48 81 -42 144 l6 62
-44 26 c-114 66 -165 197 -133 336 l8 35 -65 22 c-36 12 -68 18 -71 14z"/>
</g>
</svg>
